<svg width="50" height="50" viewBox="0 0 50 50" fill="none" xmlns="http://www.w3.org/2000/svg">
<path d="M43.3471 22.4993H41.1499C40.2239 14.5421 33.3182 8.1543 25 8.1543C20.4014 8.1543 16.2266 10.1632 13.3388 13.3022C12.5697 14.0555 12.6011 15.06 13.2289 15.6407C13.8724 16.2371 14.7984 16.2371 15.5831 15.5151C17.9216 12.9883 21.2803 11.4031 25 11.4031C31.6232 11.4031 36.9751 16.2528 37.8697 22.4993H35.4684C34.2599 22.4993 33.9303 23.3939 34.6366 24.367L38.3876 29.6718C38.9683 30.4565 39.8472 30.4722 40.4122 29.6718L44.179 24.3827C44.8852 23.3939 44.5713 22.4993 43.3471 22.4993ZM6.65281 26.2817H8.86577C9.79176 34.239 16.6975 40.6267 25 40.6267C29.6299 40.6267 33.8047 38.6021 36.6926 35.4632C37.4459 34.7098 37.4145 33.7054 36.7867 33.1247C36.1433 32.5282 35.233 32.5282 34.4325 33.2659C32.1254 35.7928 28.7667 37.3779 25 37.3779C18.3925 37.3779 13.0406 32.5282 12.146 26.2817H14.5316C15.7244 26.2817 16.0697 25.3871 15.3634 24.4141L11.5967 19.1092C11.0316 18.3245 10.1527 18.3088 9.58773 19.1092L5.82099 24.3984C5.09903 25.3871 5.42862 26.2817 6.65281 26.2817Z" fill="#33CCCC"/>
</svg>
