<svg width="50" height="50" viewBox="0 0 50 50" fill="none" xmlns="http://www.w3.org/2000/svg">
<path d="M16.4306 40.2501H33.5536C36.5199 40.2501 38.1678 38.6492 38.1678 35.6829V26.2974H38.262C39.6274 25.9051 40.3494 24.7437 40.3494 23.0172V19.0622C40.3494 16.912 39.1566 15.5779 37.0221 15.5779H34.3226C35.1701 14.7304 35.6724 13.5847 35.6724 12.2506C35.6724 9.11168 33.1769 6.88303 30.0536 6.88303C27.7308 6.88303 25.769 8.18569 24.9842 10.5085C24.2152 8.18569 22.2533 6.88303 19.9305 6.88303C16.8073 6.88303 14.3118 9.11168 14.3118 12.2506C14.3118 13.5847 14.814 14.7304 15.6616 15.5779H12.9621C10.906 15.5779 9.63477 16.912 9.63477 19.0622V23.0172C9.63477 24.7437 10.3567 25.9051 11.7065 26.2974H11.8006V35.6829C11.8006 38.6492 13.4643 40.2501 16.4306 40.2501ZM23.4932 15.5779H21.139C18.7377 15.5779 17.3566 14.2596 17.3566 12.5488C17.3566 10.8852 18.518 9.86503 20.213 9.86503C22.0179 9.86503 23.4932 11.3089 23.4932 13.5219V15.5779ZM26.4909 15.5779V13.5219C26.4909 11.3089 27.9662 9.86503 29.7711 9.86503C31.4662 9.86503 32.6276 10.8852 32.6276 12.5488C32.6276 14.2596 31.2464 15.5779 28.8451 15.5779H26.4909ZM23.3991 23.6764H13.7939C13.0405 23.6764 12.7266 23.3625 12.7266 22.6092V19.4702C12.7266 18.7169 13.0405 18.403 13.7939 18.403H23.3991V23.6764ZM26.5851 23.6764V18.403H36.206C36.9436 18.403 37.2418 18.7169 37.2418 19.4702V22.6406C37.2418 23.3939 36.9436 23.6764 36.206 23.6764H26.5851ZM23.3991 37.3936H16.8387C15.5988 37.3936 14.9082 36.7031 14.9082 35.4789V26.5015H23.3991V37.3936ZM26.5851 37.3936V26.5015H35.076V35.4789C35.076 36.7031 34.3854 37.3936 33.1455 37.3936H26.5851Z" fill="#33CCCC"/>
</svg>
