<svg width="50" height="50" viewBox="0 0 50 50" fill="none" xmlns="http://www.w3.org/2000/svg">
<path d="M19.1774 33.313H37.446C38.1837 33.313 38.8586 32.7323 38.8586 31.9005C38.8586 31.0843 38.1837 30.5036 37.446 30.5036H19.5383C18.785 30.5036 18.3141 29.9857 18.2043 29.1853L17.9689 27.553H37.5716C39.9729 27.553 41.2442 26.0934 41.5895 23.7078L42.7666 15.8447C42.798 15.6407 42.8293 15.3739 42.8293 15.2012C42.8293 14.2752 42.1859 13.6475 41.1029 13.6475H15.9442L15.7088 11.9524C15.5048 10.587 14.9555 9.89641 13.2133 9.89641H7.83004C7.04531 9.89641 6.35474 10.587 6.35474 11.3874C6.35474 12.2035 7.04531 12.8941 7.83004 12.8941H12.7425L15.1752 29.4992C15.5205 31.8691 16.7761 33.313 19.1774 33.313ZM39.5648 16.4568L38.5761 23.4253C38.4505 24.2257 38.0268 24.728 37.2577 24.728L17.5608 24.7436L16.3523 16.4568H39.5648ZM20.4643 41.1917C21.9867 41.1917 23.2109 39.9676 23.2109 38.4452C23.2109 36.9228 21.9867 35.6986 20.4643 35.6986C18.9419 35.6986 17.7177 36.9228 17.7177 38.4452C17.7177 39.9676 18.9419 41.1917 20.4643 41.1917ZM34.9663 41.1917C36.4887 41.1917 37.6972 39.9676 37.6972 38.4452C37.6972 36.9228 36.4887 35.6986 34.9663 35.6986C33.4439 35.6986 32.204 36.9228 32.204 38.4452C32.204 39.9676 33.4439 41.1917 34.9663 41.1917Z" fill="#33CCCC"/>
</svg>
