<?xml version="1.0" encoding="UTF-8" standalone="no"?>
<svg
   width="203.38713"
   height="46.460842"
   viewBox="0 0 203.38713 46.460842"
   fill="none"
   version="1.1"
   id="svg8"
   sodipodi:docname="logo.svg"
   inkscape:version="1.3.2 (091e20e, 2023-11-25, custom)"
   xmlns:inkscape="http://www.inkscape.org/namespaces/inkscape"
   xmlns:sodipodi="http://sodipodi.sourceforge.net/DTD/sodipodi-0.dtd"
   xmlns="http://www.w3.org/2000/svg"
   xmlns:svg="http://www.w3.org/2000/svg">
  <defs
     id="defs8" />
  <sodipodi:namedview
     id="namedview8"
     pagecolor="#ffffff"
     bordercolor="#000000"
     borderopacity="0.25"
     inkscape:showpageshadow="2"
     inkscape:pageopacity="0.0"
     inkscape:pagecheckerboard="0"
     inkscape:deskcolor="#d1d1d1"
     inkscape:zoom="2.3609973"
     inkscape:cx="113.72313"
     inkscape:cy="40.449008"
     inkscape:window-width="1360"
     inkscape:window-height="705"
     inkscape:window-x="-8"
     inkscape:window-y="-8"
     inkscape:window-maximized="1"
     inkscape:current-layer="svg8" />
  <path
     d="m 67.478336,34.681744 v -19.4812 h 4.9046 v 19.4812 z m 8.449,0 v -15.015 h 4.5209 v 1.1782 c 1.0412,-0.8494 2.7126,-1.5618 4.521,-1.5618 3.9729,0 5.5621,1.8358 5.5621,6.3019 v 9.0967 h -4.7401 v -7.7267 c 0,-2.5756 -0.7124,-3.5072 -2.5208,-3.5072 -1.096,0 -2.0276,0.5206 -2.6304,1.233 v 10.0009 z m 23.0588,0.3836 c -3.2604,0 -4.9318,-1.4248 -4.9318,-4.9593 v -6.3568 h -1.9453 v -4.0825 h 1.9453 v -5.8087 h 4.6858 v 5.8087 h 3.890004 v 4.0825 h -3.890004 v 5.48 c 0,1.37 0.383,1.918 1.644004,1.918 0.493,0 1.37,-0.0822 2.219,-0.4658 v 3.9729 c -0.795,0.2466 -1.754,0.411 -3.617004,0.411 z m 19.886004,-7.8911 c 0,0.3014 0,0.959 -0.027,1.3426 h -10.823 c 0.383,1.7536 1.589,2.7126 3.671,2.7126 1.535,0 2.987,-0.6028 3.918,-1.781 l 2.905,2.4386 c -1.343,1.8905 -3.59,3.1235 -7.234,3.1235 -5.096,0 -8,-3.0687 -8,-7.8637 0,-4.7675 3.287,-7.8911 7.863,-7.8911 5.151,0 7.727,3.288 7.727,7.9185 z m -7.727,-4.1647 c -1.425,0 -2.767,0.6849 -3.151,2.6577 h 6.302 c -0.082,-1.233 -0.986,-2.6577 -3.151,-2.6577 z m 9.976,11.6722 v -15.015 h 4.521 v 1.7536 c 1.123,-1.3152 2.657,-2.1372 4.548,-2.1372 0.247,0 0.466,0.0274 0.658,0.0548 v 5.0689 c -0.576,-0.1096 -1.096,-0.1918 -1.59,-0.1918 -1.972,0 -3.425,1.0138 -3.425,3.562 v 6.9047 z m 20.537,0.3562 c -1.343,0 -3.069,-0.3288 -4.137,-1.6166 v 1.2604 h -4.549 v -20.8237 h 4.658 v 6.8773 c 1.096,-1.0686 2.74,-1.4796 4.192,-1.4796 4.138,0 6.905,3.0962 6.905,7.9185 0,4.7676 -2.74,7.8637 -7.069,7.8637 z m -1.233,-4.1373 c 2.165,0 3.452,-1.4248 3.452,-3.7538 0,-2.4386 -1.37,-3.7264 -3.342,-3.7264 -1.233,0 -2.466,0.5754 -3.014,1.5892 v 4.2196 c 0.602,1.1782 1.726,1.6714 2.904,1.6714 z m 18.36,4.1373 c -5.042,0 -8.33,-3.0139 -8.33,-7.8637 0,-4.8223 3.288,-7.8911 8.33,-7.8911 5.014,0 8.302,3.0688 8.302,7.8911 0,4.8498 -3.288,7.8637 -8.302,7.8637 z m 0,-4.2469 c 2.055,0 3.424,-1.3974 3.424,-3.6168 0,-2.192 -1.369,-3.6442 -3.424,-3.6442 -2.083,0 -3.453,1.4522 -3.453,3.6442 0,2.2194 1.37,3.6168 3.453,3.6168 z m 18.355,4.2469 c -5.041,0 -8.329,-3.0139 -8.329,-7.8637 0,-4.8223 3.288,-7.8911 8.329,-7.8911 5.014,0 8.302,3.0688 8.302,7.8911 0,4.8498 -3.288,7.8637 -8.302,7.8637 z m 0,-4.2469 c 2.055,0 3.425,-1.3974 3.425,-3.6168 0,-2.192 -1.37,-3.6442 -3.425,-3.6442 -2.082,0 -3.452,1.4522 -3.452,3.6442 0,2.2194 1.37,3.6168 3.452,3.6168 z m 20.959,3.8907 -3.453,-5.8635 -2.055,2.055 v 3.8085 h -4.712 v -20.8237 h 4.712 v 11.5626 l 5.042,-5.7539 h 5.699 l -5.261,5.9457 5.316,9.0693 z"
     fill="#33cccc"
     id="path1" />
  <path
     d="m 45.235336,27.140044 h 2.1463 v 9.5185 h -2.1463 z"
     fill="#33cccc"
     id="path2" />
  <path
     d="M 9.5351361,8.0992538 H 11.681436 V 16.031344 H 9.5351361 Z"
     fill="#33cccc"
     id="path3" />
  <path
     d="m 46.802936,43.288044 h -24.2965 c -0.5935,0 -1.0713,-0.4816 -1.0713,-1.0713 0,-0.5898 0.4815,-1.0713 1.0713,-1.0713 h 24.2965 c 0.9406,0 1.7021,-0.7653 1.7021,-1.7022 0,-0.9406 -0.7652,-1.7021 -1.7021,-1.7021 h -24.2965 c -0.5935,0 -1.0713,-0.4815 -1.0713,-1.0713 0,-0.5898 0.4815,-1.0713 1.0713,-1.0713 h 24.2965 c 2.1239,0 3.8485,1.7282 3.8485,3.8484 0.0037,2.1128 -1.7246,3.8411 -3.8485,3.8411 z"
     fill="#33cccc"
     id="path4" />
  <path
     d="m 46.802936,20.514344 h -2.0455 c 2.5532,-1.9373 4.2068,-5.0019 4.2068,-8.4473 0.0037,-5.8417302 -4.7481,-10.5935302 -10.5898,-10.5935302 H 9.4156361 c -2.12392,0 -3.84845,1.72827 -3.84845,3.84848 0,2.1202 1.72827,3.84845 3.84845,3.84845 H 38.374436 c 1.5939,0 2.8929,1.2990002 2.8929,2.8929002 0,1.5939 -1.299,2.8929 -2.8929,2.8929 H 9.4156361 c -2.12392,0 -3.84845,1.7283 -3.84845,3.8485 0,1.1795 0.53379,2.2359 1.36992,2.9414 -3.69543,1.8888 -6.22997005,5.7335 -6.22997005,10.1531 0,6.2785 5.10641005,11.3886 11.38859995,11.3886 h 2.4786 c 0.5935,0 1.0713,-0.4815 1.0713,-1.0713 0,-0.5898 -0.4815,-1.0713 -1.0713,-1.0713 h -2.4786 c -5.0951699,0 -9.2422599,-4.1471 -9.2422599,-9.2423 0,-5.0952 4.14709,-9.2423 9.2422599,-9.2423 h 26.2787 8.4285 c 0.9407,0 1.7022,0.7652 1.7022,1.7021 0,0.9407 -0.7653,1.7022 -1.7022,1.7022 h -34.6101 c -3.2175999,0 -5.8342999,2.6166 -5.8342999,5.8343 0,3.2176 2.6167,5.8343 5.8342999,5.8343 h 2.3815 c 0.5935,0 1.0713,-0.4815 1.0713,-1.0713 0,-0.5898 -0.4815,-1.0713 -1.0713,-1.0713 h -2.3815 c -2.0344,0 -3.6879699,-1.6536 -3.6879699,-3.688 0,-2.0343 1.6535699,-3.688 3.6879699,-3.688 h 34.6101 c 2.124,0 3.8485,-1.7282 3.8485,-3.8484 0.0037,-2.124 -1.7245,-3.8522 -3.8485,-3.8522 z m -34.7072,0 H 9.4194361 c -0.9407,0 -1.70218,-0.7652 -1.70218,-1.7022 0,-0.9406 0.76521,-1.7021 1.70218,-1.7021 H 38.378136 c 2.7772,0 5.0392,-2.2621 5.0392,-5.0392 0,-2.7809002 -2.262,-5.0392502 -5.0392,-5.0392502 H 9.4156361 c -0.94063,0 -1.70211,-0.76522 -1.70211,-1.70214 0,-0.94065 0.76521,-1.70214 1.70211,-1.70214 H 38.374436 c 4.6584,0 8.4472,3.78875 8.4472,8.4472302 0,4.6585 -3.7888,8.4472 -8.4472,8.4472 h -26.2787 z"
     fill="#33cccc"
     id="path5" />
  <path
     d="m 14.574236,46.460844 c -0.1568,0 -0.3173,-0.0336 -0.4666,-0.1046 -0.3733,-0.1791 -0.6084,-0.5561 -0.6084,-0.9667 v -11.9001 c 0,-0.5935 0.4815,-1.0713 1.0713,-1.0713 0.5898,0 1.0713,0.4815 1.0713,1.0713 v 9.6679 l 2.2247,-1.7806 c 0.392,-0.3135 0.9481,-0.3135 1.3401,0 l 2.2247,1.7768 v -9.6678 c 0,-0.5935 0.4815,-1.0713 1.0713,-1.0713 0.5935,0 1.0713,0.4815 1.0713,1.0713 v 11.9 c 0,0.4144 -0.2352,0.7876 -0.6084,0.9668 -0.3733,0.1792 -0.8138,0.1269 -1.1348,-0.1306 l -3.296,-2.6391 -3.2961,2.6391 c -0.1903,0.1605 -0.4255,0.2389 -0.6644,0.2389 z"
     fill="#33cccc"
     id="path6" />
  <path
     d="m 50.726136,34.694944 4.8526,4.8526 -4.8526,4.8526"
     stroke="#33cccc"
     strokeWidth="2.19198"
     strokeLinecap="round"
     strokeLinejoin="round"
     id="path7" />
  <path
     d="M 5.5596861,10.058744 0.70710605,5.2061338 5.5596961,0.35355375"
     stroke="#33cccc"
     strokeWidth="2.19198"
     strokeLinecap="round"
     strokeLinejoin="round"
     id="path8" />
</svg>
