<?xml version="1.0" encoding="UTF-8" standalone="no"?>
<svg
   width="733.84998"
   height="739.54907"
   viewBox="0 0 146.02 147.06233"
   version="1.1"
   id="svg7"
   sodipodi:docname="whatsapp.svg"
   inkscape:version="1.3.2 (091e20e, 2023-11-25, custom)"
   xmlns:inkscape="http://www.inkscape.org/namespaces/inkscape"
   xmlns:sodipodi="http://sodipodi.sourceforge.net/DTD/sodipodi-0.dtd"
   xmlns="http://www.w3.org/2000/svg"
   xmlns:svg="http://www.w3.org/2000/svg">
  <defs
     id="defs7" />
  <sodipodi:namedview
     id="namedview7"
     pagecolor="#ffffff"
     bordercolor="#000000"
     borderopacity="0.25"
     inkscape:showpageshadow="2"
     inkscape:pageopacity="0.0"
     inkscape:pagecheckerboard="0"
     inkscape:deskcolor="#d1d1d1"
     inkscape:zoom="0.6096"
     inkscape:cx="386.3189"
     inkscape:cy="320.7021"
     inkscape:window-width="1360"
     inkscape:window-height="705"
     inkscape:window-x="-8"
     inkscape:window-y="-8"
     inkscape:window-maximized="1"
     inkscape:current-layer="svg7" />
  <path
     fill="#fefefe"
     d="m 74.339,131.90714 c -12.225,0 -23.634,-3.685 -33.165,-9.956 l -23.174,7.404 7.512,-22.393 c -7.228,-9.922 -11.479,-22.146 -11.479,-35.327 0,-33.236 27.035,-60.271 60.271,-60.271 33.236,0 60.271,27.035 60.271,60.271 0,33.235 -27.035,60.271 -60.271,60.271 h 0.035 z m 0,-131.953 c -39.58,0 -71.681,32.104 -71.681,71.682 0,13.535 3.756,26.22 10.275,37.027 L 0,147.10814 l 39.686,-12.72 a 71.502,71.502 0 0 0 34.653,8.929 c 39.579,0 71.681,-32.102 71.681,-71.681 -0.001,-39.578 -32.102,-71.682 -71.681,-71.682 z"
     id="path2" />
  <linearGradient
     id="a"
     gradientUnits="userSpaceOnUse"
     x1="-16132.404"
     y1="481239.09"
     x2="-16132.404"
     y2="484641.09"
     gradientTransform="matrix(0.0013,0,0,0.0013,-418.004,-816.17886)">
    <stop
       offset="0"
       stop-color="#6ebf61"
       id="stop2" />
    <stop
       offset=".231"
       stop-color="#50a557"
       id="stop3" />
    <stop
       offset=".522"
       stop-color="#2a904f"
       id="stop4" />
    <stop
       offset=".812"
       stop-color="#50a557"
       id="stop5" />
    <stop
       offset="1"
       stop-color="#6ebf63"
       id="stop6" />
  </linearGradient>
  <path
     fill="url(#a)"
     d="m 74.339,11.36414 c -33.236,0 -60.271,27.035 -60.271,60.271 0,13.181 4.252,25.405 11.48,35.327 l -7.512,22.393 23.173,-7.404 c 9.531,6.307 20.905,9.956 33.165,9.956 33.236,0 60.271,-27.036 60.271,-60.271 0,-33.236 -27.035,-60.271 -60.271,-60.271 h -0.035 z"
     id="path6"
     style="fill:url(#a)" />
  <path
     fill="#fefefe"
     d="m 57.508,41.97914 c -1.169,-2.799 -2.055,-2.905 -3.826,-2.977 a 34.047,34.047 0 0 0 -2.02,-0.07 c -2.304,0 -4.713,0.673 -6.166,2.161 -1.771,1.807 -6.165,6.023 -6.165,14.669 0,8.646 6.307,17.008 7.157,18.178 0.886,1.168 12.296,19.168 30.012,26.504 13.854,5.74 17.965,5.208 21.118,4.535 4.606,-0.992 10.382,-4.395 11.835,-8.504 1.453,-4.111 1.453,-7.619 1.027,-8.363 -0.425,-0.744 -1.595,-1.168 -3.366,-2.055 -1.771,-0.886 -10.382,-5.138 -12.012,-5.705 -1.595,-0.602 -3.118,-0.389 -4.322,1.312 -1.701,2.374 -3.366,4.784 -4.713,6.236 -1.063,1.134 -2.8,1.276 -4.252,0.673 -1.949,-0.814 -7.405,-2.729 -14.138,-8.717 -5.209,-4.641 -8.752,-10.416 -9.779,-12.152 -1.028,-1.771 -0.106,-2.8 0.708,-3.756 0.886,-1.099 1.736,-1.878 2.622,-2.906 0.886,-1.027 1.382,-1.559 1.949,-2.764 0.603,-1.169 0.177,-2.374 -0.248,-3.26 -0.425,-0.886 -3.968,-9.532 -5.421,-13.039 z"
     id="path7" />
</svg>
